<svg fill="none">
     <symbol id="grid-2"  viewBox="0 0 32 32" fill="none" xmlns="http://www.w3.org/2000/svg">
        <rect x="4.5" y="12.5" width="23" height="1" rx="0.5"  />
        <rect x="4.5" y="18.5" width="23" height="1" rx="0.5"  />
    </symbol>
    <symbol id="grid-3"  viewBox="0 0 32 32" fill="none" xmlns="http://www.w3.org/2000/svg">
        <rect x="4.5" y="15.5" width="23" height="1" rx="0.5" />
        <rect x="4.5" y="21.5" width="23" height="1" rx="0.5" />
        <rect x="4.5" y="9.5" width="23" height="1" rx="0.5" />
    </symbol>
    <symbol id="grid-4"  viewBox="0 0 32 32" fill="none" xmlns="http://www.w3.org/2000/svg">
        <rect x="4.5" y="12.5" width="23" height="1" rx="0.5" />
        <rect x="4.5" y="18.5" width="23" height="1" rx="0.5" />
        <path d="M5 6.5H27C27.2761 6.5 27.5 6.72386 27.5 7C27.5 7.27614 27.2761 7.5 27 7.5H5C4.72386 7.5 4.5 7.27614 4.5 7C4.5 6.72386 4.72386 6.5 5 6.5Z" />
        <rect x="4.5" y="24.5" width="23" height="1" rx="0.5" />
    </symbol>
    <symbol id="grid-list"  viewBox="0 0 32 32" fill="none" xmlns="http://www.w3.org/2000/svg">
        <path d="M10 9.5H26C26.2761 9.5 26.5 9.72386 26.5 10C26.5 10.2761 26.2761 10.5 26 10.5H10C9.72386 10.5 9.5 10.2761 9.5 10C9.5 9.72386 9.72386 9.5 10 9.5Z" />
        <rect x="5.5" y="9.5" width="1" height="1" rx="0.5" />
        <path d="M10 15.5H26C26.2761 15.5 26.5 15.7239 26.5 16C26.5 16.2761 26.2761 16.5 26 16.5H10C9.72386 16.5 9.5 16.2761 9.5 16C9.5 15.7239 9.72386 15.5 10 15.5Z" />
        <rect x="5.5" y="15.5" width="1" height="1" rx="0.5" />
        <path d="M10 21.5H26C26.2761 21.5 26.5 21.7239 26.5 22C26.5 22.2761 26.2761 22.5 26 22.5H10C9.72386 22.5 9.5 22.2761 9.5 22C9.5 21.7239 9.72386 21.5 10 21.5Z" />
        <rect x="5.5" y="21.5" width="1" height="1" rx="0.5" />
    </symbol>
    <symbol id="star" viewBox="0 0 24 24" xmlns="http://www.w3.org/2000/svg">
        <path d="M17.9184 14.3201C17.6594 14.5711 17.5404 14.9341 17.5994 15.2901L18.4884 20.2101C18.5634 20.6271 18.3874 21.0491 18.0384 21.2901C17.6964 21.5401 17.2414 21.5701 16.8684 21.3701L12.4394 19.0601C12.2854 18.9781 12.1144 18.9341 11.9394 18.9291H11.6684C11.5744 18.9431 11.4824 18.9731 11.3984 19.0191L6.96839 21.3401C6.74939 21.4501 6.50139 21.4891 6.25839 21.4501C5.66639 21.3381 5.27139 20.7741 5.36839 20.1791L6.25839 15.2591C6.31739 14.9001 6.19839 14.5351 5.93939 14.2801L2.32839 10.7801C2.02639 10.4871 1.92139 10.0471 2.05939 9.65012C2.19339 9.25412 2.53539 8.96512 2.94839 8.90012L7.91839 8.17912C8.29639 8.14012 8.62839 7.91012 8.79839 7.57012L10.9884 3.08012C11.0404 2.98012 11.1074 2.88812 11.1884 2.81012L11.2784 2.74012C11.3254 2.68812 11.3794 2.64512 11.4394 2.61012L11.5484 2.57012L11.7184 2.50012H12.1394C12.5154 2.53912 12.8464 2.76412 13.0194 3.10012L15.2384 7.57012C15.3984 7.89712 15.7094 8.12412 16.0684 8.17912L21.0384 8.90012C21.4584 8.96012 21.8094 9.25012 21.9484 9.65012C22.0794 10.0511 21.9664 10.4911 21.6584 10.7801L17.9184 14.3201Z"/>
    </symbol>
    <symbol id="arrow" xmlns="http://www.w3.org/2000/svg" viewBox="0 0 17 9">
        <path d="M12.17 6.77L6.81 1.41L8.22 0L16.97 8.77H12.17H0V6.77H12.17Z"/>
    </symbol>
    <symbol id="main-line" xmlns="http://www.w3.org/2000/svg" viewBox="0 0 68 12" fill="none">
        <path d="M1 10L9.6087 2L17.5 10L26.1087 2L34.7174 10L42.6087 2L50.5 10L58.3913 2L67 10" stroke-width="2"/>
    </symbol>
    <symbol id="instagram" xmlns="http://www.w3.org/2000/svg" viewBox="0 0 45 45">
        <g clip-path="url(#clip0_637_2228)">
            <path d="M21.5 16.875C20.0082 16.875 18.5774 17.4676 17.5225 18.5225C16.4676 19.5774 15.875 21.0082 15.875 22.5C15.875 23.9918 16.4676 25.4226 17.5225 26.4775C18.5774 27.5324 20.0082 28.125 21.5 28.125C22.9918 28.125 24.4226 27.5324 25.4775 26.4775C26.5324 25.4226 27.125 23.9918 27.125 22.5C27.125 21.0082 26.5324 19.5774 25.4775 18.5225C24.4226 17.4676 22.9918 16.875 21.5 16.875ZM21.5 13.125C23.9864 13.125 26.371 14.1127 28.1291 15.8709C29.8873 17.629 30.875 20.0136 30.875 22.5C30.875 24.9864 29.8873 27.371 28.1291 29.1291C26.371 30.8873 23.9864 31.875 21.5 31.875C19.0136 31.875 16.629 30.8873 14.8709 29.1291C13.1127 27.371 12.125 24.9864 12.125 22.5C12.125 20.0136 13.1127 17.629 14.8709 15.8709C16.629 14.1127 19.0136 13.125 21.5 13.125ZM33.6875 12.6563C33.6875 13.2779 33.4406 13.874 33.001 14.3135C32.5615 14.7531 31.9654 15 31.3438 15C30.7222 15 30.126 14.7531 29.6865 14.3135C29.2469 13.874 29 13.2779 29 12.6563C29 12.0346 29.2469 11.4385 29.6865 10.999C30.126 10.5594 30.7222 10.3125 31.3438 10.3125C31.9654 10.3125 32.5615 10.5594 33.001 10.999C33.4406 11.4385 33.6875 12.0346 33.6875 12.6563ZM21.5 7.5C16.8613 7.5 16.1038 7.51313 13.9456 7.60875C12.4756 7.67813 11.4894 7.875 10.5744 8.23125C9.76063 8.54625 9.17375 8.92313 8.54938 9.54938C7.96251 10.1164 7.51129 10.8086 7.22938 11.5744C6.87313 12.4931 6.67625 13.4775 6.60875 14.9456C6.51125 17.0156 6.5 17.7394 6.5 22.5C6.5 27.1388 6.51313 27.8963 6.60875 30.0544C6.67813 31.5225 6.875 32.5106 7.22938 33.4238C7.54813 34.2394 7.92313 34.8263 8.54563 35.4488C9.1775 36.0788 9.76438 36.4556 10.5706 36.7669C11.4969 37.125 12.4831 37.3238 13.9456 37.3913C16.0156 37.4888 16.7394 37.5 21.5 37.5C26.1388 37.5 26.8963 37.4869 29.0544 37.3913C30.5206 37.3219 31.5088 37.125 32.4238 36.7706C33.2356 36.4538 33.8263 36.0769 34.4488 35.4544C35.0806 34.8225 35.4575 34.2356 35.7688 33.4294C36.125 32.505 36.3238 31.5169 36.3913 30.0544C36.4888 27.9844 36.5 27.2606 36.5 22.5C36.5 17.8613 36.4869 17.1038 36.3913 14.9456C36.3219 13.4794 36.125 12.4894 35.7688 11.5744C35.4862 10.8094 35.0358 10.1174 34.4506 9.54938C33.8839 8.96221 33.1916 8.51094 32.4256 8.22938C31.5069 7.87313 30.5206 7.67625 29.0544 7.60875C26.9844 7.51125 26.2606 7.5 21.5 7.5ZM21.5 3.75C26.5944 3.75 27.23 3.76875 29.2288 3.8625C31.2256 3.95625 32.585 4.26938 33.7813 4.73438C35.0188 5.21063 36.0613 5.85563 37.1038 6.89625C38.0572 7.83356 38.7949 8.96735 39.2656 10.2188C39.7288 11.4131 40.0438 12.7744 40.1375 14.7713C40.2256 16.77 40.25 17.4056 40.25 22.5C40.25 27.5944 40.2313 28.23 40.1375 30.2288C40.0438 32.2256 39.7288 33.585 39.2656 34.7813C38.7963 36.0333 38.0584 37.1674 37.1038 38.1038C36.1662 39.0569 35.0325 39.7945 33.7813 40.2656C32.5869 40.7288 31.2256 41.0438 29.2288 41.1375C27.23 41.2256 26.5944 41.25 21.5 41.25C16.4056 41.25 15.77 41.2313 13.7713 41.1375C11.7744 41.0438 10.415 40.7288 9.21875 40.2656C7.96686 39.7959 6.83286 39.058 5.89625 38.1038C4.94264 37.1666 4.20487 36.0328 3.73438 34.7813C3.26938 33.5869 2.95625 32.2256 2.8625 30.2288C2.77437 28.23 2.75 27.5944 2.75 22.5C2.75 17.4056 2.76875 16.77 2.8625 14.7713C2.95625 12.7725 3.26938 11.415 3.73438 10.2188C4.20357 8.96659 4.94151 7.83248 5.89625 6.89625C6.83313 5.94231 7.96705 5.20449 9.21875 4.73438C10.415 4.26938 11.7725 3.95625 13.7713 3.8625C15.77 3.77437 16.4056 3.75 21.5 3.75Z"/>
        </g>
        <defs>
            <clipPath id="clip0_637_2228">
            <rect width="45" height="45" fill="white"/>
            </clipPath>
        </defs>
    </symbol>

</svg> 