<svg width="512" height="302" viewBox="0 0 512 302" fill="none" xmlns="http://www.w3.org/2000/svg">
<path d="M499.185 240.261C435.481 188.955 354.885 161.938 273.197 158.572V130.742C301.387 123.15 322.207 97.3529 322.207 66.7852C322.207 30.271 292.524 0.560547 256.001 0.560547C219.482 0.560547 189.762 30.271 189.762 66.7852C189.762 76.2789 197.471 83.9784 206.955 83.9784C216.461 83.9784 224.151 76.2789 224.151 66.7852C224.151 49.2293 238.458 34.9468 256.002 34.9468C273.55 34.9468 287.822 49.2293 287.822 66.7852C287.822 84.3391 273.549 98.6205 256.002 98.6205C246.517 98.6205 238.809 106.317 238.809 115.814V158.571C157.12 161.928 76.5248 188.945 12.8179 240.26C-1.97355 252.173 -4.3068 273.816 7.61343 288.609C19.5036 303.395 41.1632 305.761 55.9578 293.824C166.274 205.008 345.751 205.008 456.037 293.824C462.141 298.753 469.751 301.438 477.596 301.43C487.638 301.43 497.611 297.047 504.393 288.609C516.313 273.817 513.962 252.174 499.185 240.261Z" fill="#CCA270"/>
</svg>
